<svg width="1439" height="502" viewBox="0 0 1439 502" fill="none" xmlns="http://www.w3.org/2000/svg">
<g opacity="0.44" clip-path="url(#clip0_11_79)">
<path d="M1438.35 451.349L1378.45 401.201C1318.54 351.052 1198.72 250.756 1078.9 225.682C959.086 200.607 839.265 250.756 719.444 309.296C599.623 367.427 479.801 434.974 359.984 392.809C240.166 351.052 120.352 200.607 0.533282 183.926C-119.285 166.834 -239.109 284.529 -358.928 292.512C-478.747 300.904 -598.563 200.607 -718.381 150.459C-838.198 100.311 -958.017 100.311 -1077.84 108.703C-1197.66 116.686 -1317.48 134.084 -1437.3 150.459C-1557.12 166.834 -1676.94 184.233 -1796.76 217.289C-1916.58 250.756 -2036.4 300.904 -2156.22 325.978C-2276.04 351.052 -2395.86 351.052 -2515.67 325.978C-2635.49 300.904 -2755.31 250.756 -2875.13 225.682C-2994.95 200.607 -3114.77 200.607 -3234.58 192.215C-3354.4 184.233 -3474.22 166.834 -3594.04 142.067C-3713.86 116.686 -3833.68 83.9359 -3953.5 133.777C-4073.32 184.233 -4193.14 317.279 -4312.96 351.052C-4432.78 384.826 -4552.6 317.279 -4672.42 309.296C-4792.24 300.904 -4912.06 351.052 -5031.88 384.519C-5151.7 417.576 -5271.52 434.974 -5391.34 417.883C-5511.16 401.201 -5630.97 351.052 -5750.79 309.296C-5870.61 267.131 -5990.43 234.381 -6110.25 267.438C-6230.07 300.904 -6349.89 401.201 -6469.71 384.519C-6589.53 367.427 -6709.34 234.381 -6829.16 192.215C-6948.98 150.459 -7068.8 200.607 -7128.71 225.682L-7188.62 250.756L-7188.61 0.0141907L-7128.7 0.0141907C-7068.79 0.0141907 -6948.97 0.0141907 -6829.15 0.0141907C-6709.33 0.0141907 -6589.52 0.0141907 -6469.7 0.0141907C-6349.88 0.0141907 -6230.06 0.0141907 -6110.24 0.0141907C-5990.42 0.0141907 -5870.6 0.0141907 -5750.78 0.0141907C-5630.96 0.0141907 -5511.14 0.0141907 -5391.32 0.0141907C-5271.5 0.0141907 -5151.69 0.0141907 -5031.87 0.0141907C-4912.05 0.0141907 -4792.23 0.0141907 -4672.41 0.0141907C-4552.59 0.0141907 -4432.77 0.0141907 -4312.95 0.0141907C-4193.13 0.0141907 -4073.31 0.0141907 -3953.49 0.0141907C-3833.67 0.0141907 -3713.85 0.0141907 -3594.04 0.0141907C-3474.22 0.0141907 -3354.4 0.0141907 -3234.58 0.0141907C-3114.76 0.0141907 -2994.94 0.0141907 -2875.12 0.0141907C-2755.3 0.0141907 -2635.48 0.0141907 -2515.66 0.0141907C-2395.84 0.0141907 -2276.02 0.0141907 -2156.21 0.0141907C-2036.39 0.0141907 -1916.57 0.0141907 -1796.75 0.0141907C-1676.93 0.0141907 -1557.11 0.0141907 -1437.29 0.0141907C-1317.47 0.0141907 -1197.65 0.0141907 -1077.83 0.0141907C-958.014 0.0141907 -838.195 0.0141907 -718.375 0.0141907C-598.556 0.0141907 -478.737 0.0141907 -358.918 0.0141907C-239.099 0.0141907 -119.28 0.0141907 0.539549 0.0141907C120.359 0.0141907 240.178 0.0141907 359.997 0.0141907C479.816 0.0141907 599.635 0.0141907 719.455 0.0141907C839.274 0.0141907 959.093 0.0141907 1078.91 0.0141907C1198.73 0.0141907 1318.55 0.0141907 1378.46 0.0141907H1438.37L1438.35 451.349Z" fill="url(#paint0_linear_11_79)"/>
<path opacity="0.9" d="M1440.29 50.1625L1380.29 58.5547C1320.29 66.5375 1200.29 83.9359 1080.29 91.9186C960.292 100.311 840.292 100.311 720.289 167.141C600.287 234.381 480.283 367.427 360.282 392.809C240.281 417.576 120.284 334.678 0.284324 317.586C-119.715 300.904 -239.717 351.052 -359.716 342.66C-479.716 334.678 -599.714 267.131 -719.714 259.148C-839.713 250.756 -959.715 300.904 -1079.72 342.66C-1199.72 384.826 -1319.72 417.576 -1439.72 417.883C-1559.72 417.576 -1679.72 384.826 -1799.72 351.052C-1919.72 317.279 -2039.71 284.529 -2159.71 267.438C-2279.71 250.756 -2399.71 250.756 -2519.71 267.438C-2639.71 284.529 -2759.72 317.279 -2879.72 334.37C-2999.72 351.052 -3119.72 351.052 -3239.72 359.445C-3359.72 367.427 -3479.72 384.826 -3599.72 401.201C-3719.72 417.576 -3839.72 434.974 -3959.72 451.349C-4079.72 467.724 -4199.72 485.122 -4319.72 484.815C-4439.72 485.122 -4559.72 467.724 -4679.72 459.741C-4799.72 451.349 -4919.72 451.349 -5039.72 459.741C-5159.72 467.724 -5279.72 485.122 -5399.72 426.275C-5519.72 367.427 -5639.71 234.381 -5759.71 175.533C-5879.71 116.686 -5999.71 134.084 -6119.71 167.141C-6239.71 200.607 -6359.71 250.756 -6479.71 234.074C-6599.71 216.982 -6719.71 134.084 -6839.71 100.311C-6959.71 66.5375 -7079.71 83.9359 -7139.71 91.9186L-7199.71 100.311L-7199.7 0.0141907L-7139.7 0.0141907C-7079.7 0.0141907 -6959.7 0.0141907 -6839.7 0.0141907C-6719.7 0.0141907 -6599.7 0.0141907 -6479.7 0.0141907C-6359.7 0.0141907 -6239.7 0.0141907 -6119.7 0.0141907C-5999.7 0.0141907 -5879.7 0.0141907 -5759.7 0.0141907C-5639.7 0.0141907 -5519.7 0.0141907 -5399.7 0.0141907C-5279.7 0.0141907 -5159.7 0.0141907 -5039.7 0.0141907C-4919.7 0.0141907 -4799.7 0.0141907 -4679.7 0.0141907C-4559.7 0.0141907 -4439.7 0.0141907 -4319.7 0.0141907C-4199.7 0.0141907 -4079.7 0.0141907 -3959.7 0.0141907C-3839.7 0.0141907 -3719.7 0.0141907 -3599.7 0.0141907C-3479.7 0.0141907 -3359.7 0.0141907 -3239.7 0.0141907C-3119.7 0.0141907 -2999.7 0.0141907 -2879.7 0.0141907C-2759.7 0.0141907 -2639.7 0.0141907 -2519.7 0.0141907C-2399.7 0.0141907 -2279.7 0.0141907 -2159.7 0.0141907C-2039.7 0.0141907 -1919.7 0.0141907 -1799.7 0.0141907C-1679.7 0.0141907 -1559.7 0.0141907 -1439.7 0.0141907C-1319.7 0.0141907 -1199.7 0.0141907 -1079.7 0.0141907C-959.705 0.0141907 -839.705 0.0141907 -719.705 0.0141907C-599.705 0.0141907 -479.705 0.0141907 -359.705 0.0141907C-239.705 0.0141907 -119.705 0.0141907 0.295145 0.0141907C120.295 0.0141907 240.295 0.0141907 360.295 0.0141907C480.295 0.0141907 600.295 0.0141907 720.295 0.0141907C840.295 0.0141907 960.295 0.0141907 1080.3 0.0141907C1200.3 0.0141907 1320.3 0.0141907 1380.3 0.0141907H1440.3L1440.29 50.1625Z" fill="url(#paint1_linear_11_79)" fill-opacity="0.88"/>
</g>
<defs>
<linearGradient id="paint0_linear_11_79" x1="1438.37" y1="0.0141907" x2="1438.37" y2="451.349" gradientUnits="userSpaceOnUse">
<stop stop-color="#6D2EB0"/>
<stop offset="0.947917" stop-color="#2C2447"/>
</linearGradient>
<linearGradient id="paint1_linear_11_79" x1="1440.3" y1="0.0141602" x2="1440.3" y2="484.819" gradientUnits="userSpaceOnUse">
<stop stop-color="#2C2447"/>
<stop offset="0.979167" stop-color="#2C2447"/>
</linearGradient>
<clipPath id="clip0_11_79">
<rect width="1440" height="501.483" fill="white" transform="matrix(-1 0 3.40747e-05 -1 1440.28 501.497)"/>
</clipPath>
</defs>
</svg>
